<mxfile host="65bd71144e" scale="4" border="0">
    <diagram id="memory_access_pattern" name="CUDA Transpose Memory Access">
        <mxGraphModel dx="640" dy="508" grid="1" gridSize="10" guides="1" tooltips="1" connect="1" arrows="1" fold="1" page="1" pageScale="1" pageWidth="850" pageHeight="1100" background="#ffffff" math="0" shadow="0">
            <root>
                <mxCell id="0"/>
                <mxCell id="1" parent="0"/>
                <mxCell id="53" value="&lt;div&gt;Non-sequential access in a transaction&lt;/div&gt;non-coalesced write in a Warp" style="text;html=1;strokeColor=none;fillColor=none;align=center;verticalAlign=middle;whiteSpace=wrap;rounded=0;fontColor=#FF0000;" parent="1" vertex="1">
                    <mxGeometry x="178.75" y="520" width="222.5" height="30" as="geometry"/>
                </mxCell>
                <mxCell id="59" value="" style="shape=partialRectangle;whiteSpace=wrap;html=1;bottom=0;right=0;fillColor=none;direction=north;rotation=-90;flipH=0;flipV=1;dashed=1;strokeColor=#FF6666;strokeWidth=2;" parent="1" vertex="1">
                    <mxGeometry x="187.5" y="392.5" width="30" height="205" as="geometry"/>
                </mxCell>
                <mxCell id="60" value="" style="endArrow=none;html=1;exitX=0.5;exitY=0;exitDx=0;exitDy=0;entryX=0.5;entryY=1;entryDx=0;entryDy=0;dashed=1;strokeColor=#FF6666;strokeWidth=2;" parent="1" source="53" target="48" edge="1">
                    <mxGeometry width="50" height="50" relative="1" as="geometry">
                        <mxPoint x="160" y="410" as="sourcePoint"/>
                        <mxPoint x="210" y="360" as="targetPoint"/>
                    </mxGeometry>
                </mxCell>
                <mxCell id="66" value="(i, j)" style="text;html=1;align=center;verticalAlign=middle;resizable=0;points=[];autosize=1;strokeColor=none;fillColor=none;" parent="1" vertex="1">
                    <mxGeometry x="40" y="450" width="40" height="30" as="geometry"/>
                </mxCell>
                <mxCell id="81" value="..." style="text;html=1;strokeColor=none;fillColor=none;align=center;verticalAlign=middle;whiteSpace=wrap;rounded=0;" parent="1" vertex="1">
                    <mxGeometry x="200" y="450" width="30" height="30" as="geometry"/>
                </mxCell>
                <mxCell id="44" value="Output Matrix on MEM" style="rounded=0;whiteSpace=wrap;html=1;align=center;spacingLeft=5;fillColor=#f5f5f5;fontColor=#333333;strokeColor=#666666;" parent="1" vertex="1">
                    <mxGeometry x="80" y="420" width="360" height="30" as="geometry"/>
                </mxCell>
                <mxCell id="45" value="(0,0)" style="rounded=0;whiteSpace=wrap;html=1;fillColor=#d5e8d4;strokeColor=#82b366;" parent="1" vertex="1">
                    <mxGeometry x="80" y="450" width="40" height="30" as="geometry"/>
                </mxCell>
                <mxCell id="46" value="(1,0)" style="rounded=0;whiteSpace=wrap;html=1;fillColor=#fff2cc;strokeColor=#d6b656;" parent="1" vertex="1">
                    <mxGeometry x="120" y="450" width="40" height="30" as="geometry"/>
                </mxCell>
                <mxCell id="47" value="(2,0)" style="rounded=0;whiteSpace=wrap;html=1;fillColor=#dae8fc;strokeColor=#6c8ebf;" parent="1" vertex="1">
                    <mxGeometry x="160" y="450" width="40" height="30" as="geometry"/>
                </mxCell>
                <mxCell id="48" value="(0,1)" style="rounded=0;whiteSpace=wrap;html=1;fillColor=#d5e8d4;strokeColor=#82b366;" parent="1" vertex="1">
                    <mxGeometry x="270" y="450" width="40" height="30" as="geometry"/>
                </mxCell>
                <mxCell id="49" value="..." style="text;html=1;strokeColor=none;fillColor=none;align=center;verticalAlign=middle;whiteSpace=wrap;rounded=0;" parent="1" vertex="1">
                    <mxGeometry x="310" y="450" width="30" height="30" as="geometry"/>
                </mxCell>
                <mxCell id="56" value="(15,3)" style="text;html=1;align=center;verticalAlign=middle;whiteSpace=wrap;rounded=0;fillColor=#f8cecc;strokeColor=#b85450;" parent="1" vertex="1">
                    <mxGeometry x="400" y="450" width="40" height="30" as="geometry"/>
                </mxCell>
                <mxCell id="83" value="(15,0)" style="rounded=0;whiteSpace=wrap;html=1;fillColor=#f8cecc;strokeColor=#b85450;" parent="1" vertex="1">
                    <mxGeometry x="230" y="450" width="40" height="30" as="geometry"/>
                </mxCell>
                <mxCell id="86" value="" style="rounded=0;whiteSpace=wrap;html=1;fillColor=none;dashed=1;dashPattern=1 4;strokeWidth=2;strokeColor=#9933FF;container=0;" parent="1" vertex="1">
                    <mxGeometry x="80" y="450" width="130" height="30" as="geometry"/>
                </mxCell>
                <mxCell id="87" value="" style="rounded=0;whiteSpace=wrap;html=1;fillColor=none;dashed=1;dashPattern=1 4;strokeWidth=2;strokeColor=#9933FF;container=0;" parent="1" vertex="1">
                    <mxGeometry x="220" y="450" width="50" height="30" as="geometry"/>
                </mxCell>
                <mxCell id="88" value="" style="rounded=0;whiteSpace=wrap;html=1;fillColor=none;dashed=1;dashPattern=1 4;strokeWidth=2;strokeColor=#9933FF;container=0;" parent="1" vertex="1">
                    <mxGeometry x="270" y="450" width="50" height="30" as="geometry"/>
                </mxCell>
                <mxCell id="89" value="" style="rounded=0;whiteSpace=wrap;html=1;fillColor=none;dashed=1;dashPattern=1 4;strokeWidth=2;strokeColor=#9933FF;container=0;" parent="1" vertex="1">
                    <mxGeometry x="330" y="450" width="110" height="30" as="geometry"/>
                </mxCell>
                <mxCell id="110" value="&lt;span style=&quot;color: rgb(255, 0, 128);&quot;&gt;1&lt;/span&gt;" style="text;html=1;align=center;verticalAlign=middle;resizable=0;points=[];autosize=1;strokeColor=none;fillColor=none;" parent="1" vertex="1">
                    <mxGeometry x="100" y="440" width="30" height="30" as="geometry"/>
                </mxCell>
                <mxCell id="111" value="&lt;span style=&quot;color: rgb(255, 0, 128);&quot;&gt;2&lt;/span&gt;" style="text;html=1;align=center;verticalAlign=middle;resizable=0;points=[];autosize=1;strokeColor=none;fillColor=none;" parent="1" vertex="1">
                    <mxGeometry x="290" y="440" width="30" height="30" as="geometry"/>
                </mxCell>
                <mxCell id="112" value="&lt;span style=&quot;color: rgb(255, 0, 128);&quot;&gt;5&lt;/span&gt;" style="text;html=1;align=center;verticalAlign=middle;resizable=0;points=[];autosize=1;strokeColor=none;fillColor=none;" parent="1" vertex="1">
                    <mxGeometry x="135" y="440" width="30" height="30" as="geometry"/>
                </mxCell>
                <mxCell id="113" value="&lt;span style=&quot;color: rgb(255, 0, 128);&quot;&gt;9&lt;/span&gt;" style="text;html=1;align=center;verticalAlign=middle;resizable=0;points=[];autosize=1;strokeColor=none;fillColor=none;" parent="1" vertex="1">
                    <mxGeometry x="180" y="440" width="30" height="30" as="geometry"/>
                </mxCell>
                <mxCell id="64" value="size_of(item) = 8&lt;div&gt;&lt;font color=&quot;#000000&quot;&gt;gridDim = (1,1) for simplicity&lt;br&gt;&lt;/font&gt;&lt;div&gt;blockDim&amp;nbsp;&lt;/div&gt;&lt;div&gt;= (N//gridDim.x = 4, M//gridDim.y = 16)&amp;nbsp;&lt;/div&gt;&lt;div&gt;= 2 Warps&lt;/div&gt;&lt;div&gt;1 Warp = 4 transactions&amp;nbsp;&lt;/div&gt;&lt;/div&gt;" style="text;html=1;align=left;verticalAlign=middle;resizable=0;points=[];autosize=1;strokeColor=none;fillColor=#E6E6E6;spacingLeft=7;" parent="1" vertex="1">
                    <mxGeometry x="80" y="200" width="240" height="100" as="geometry"/>
                </mxCell>
                <mxCell id="115" value="&lt;font style=&quot;color: rgb(255, 0, 0);&quot;&gt;Warp&lt;/font&gt;" style="rounded=0;whiteSpace=wrap;html=1;fillColor=none;dashed=1;dashPattern=1 4;strokeWidth=2;strokeColor=#FF0000;container=0;" parent="1" vertex="1">
                    <mxGeometry x="350" y="200" width="80" height="40" as="geometry"/>
                </mxCell>
                <mxCell id="116" value="&lt;font style=&quot;color: rgb(153, 51, 255);&quot;&gt;Transaction&lt;/font&gt;" style="rounded=0;whiteSpace=wrap;html=1;fillColor=none;dashed=1;dashPattern=1 4;strokeWidth=2;strokeColor=#9933FF;container=0;" parent="1" vertex="1">
                    <mxGeometry x="350" y="250" width="80" height="40" as="geometry"/>
                </mxCell>
                <mxCell id="118" value="&lt;div style=&quot;color: rgb(59, 59, 59); background-color: rgb(255, 255, 255); font-family: Menlo, Monaco, &amp;quot;Courier New&amp;quot;, monospace; line-height: 18px; white-space-collapse: preserve;&quot;&gt;&lt;span style=&quot;color: #3b3b3b;&quot;&gt;to_idx = j*M + i&lt;/span&gt;&lt;/div&gt;" style="text;html=1;align=center;verticalAlign=middle;resizable=0;points=[];autosize=1;strokeColor=none;fillColor=none;" parent="1" vertex="1">
                    <mxGeometry x="300" y="485" width="140" height="30" as="geometry"/>
                </mxCell>
                <mxCell id="125" value="&lt;span style=&quot;color: rgb(255, 0, 128);&quot;&gt;63&lt;/span&gt;" style="text;html=1;align=center;verticalAlign=middle;resizable=0;points=[];autosize=1;strokeColor=none;fillColor=none;" parent="1" vertex="1">
                    <mxGeometry x="415" y="440" width="40" height="30" as="geometry"/>
                </mxCell>
                <mxCell id="127" value="" style="group" vertex="1" connectable="0" parent="1">
                    <mxGeometry x="460" y="200" width="200" height="360" as="geometry"/>
                </mxCell>
                <mxCell id="120" value="" style="group" parent="127" vertex="1" connectable="0">
                    <mxGeometry x="10" width="160" height="180" as="geometry"/>
                </mxCell>
                <mxCell id="78" value="(15,2)" style="rounded=0;whiteSpace=wrap;html=1;fillColor=#f8cecc;strokeColor=#b85450;rotation=-360;movable=1;resizable=1;rotatable=1;deletable=1;editable=1;locked=0;connectable=1;container=0;" parent="120" vertex="1">
                    <mxGeometry x="80" y="140" width="40" height="40" as="geometry"/>
                </mxCell>
                <mxCell id="77" value="(15,1)" style="rounded=0;whiteSpace=wrap;html=1;fillColor=#f8cecc;strokeColor=#b85450;rotation=-360;movable=1;resizable=1;rotatable=1;deletable=1;editable=1;locked=0;connectable=1;container=0;" parent="120" vertex="1">
                    <mxGeometry x="40" y="140" width="40" height="40" as="geometry"/>
                </mxCell>
                <mxCell id="76" value="(15,0)" style="rounded=0;whiteSpace=wrap;html=1;fillColor=#f8cecc;strokeColor=#b85450;rotation=-360;movable=1;resizable=1;rotatable=1;deletable=1;editable=1;locked=0;connectable=1;container=0;" parent="120" vertex="1">
                    <mxGeometry y="140" width="40" height="40" as="geometry"/>
                </mxCell>
                <mxCell id="73" value="..." style="rounded=0;whiteSpace=wrap;html=1;direction=south;container=0;" parent="120" vertex="1">
                    <mxGeometry y="120" width="160" height="20" as="geometry"/>
                </mxCell>
                <mxCell id="79" value="(15,3)" style="rounded=0;whiteSpace=wrap;html=1;fillColor=#f8cecc;strokeColor=#b85450;rotation=-360;movable=1;resizable=1;rotatable=1;deletable=1;editable=1;locked=0;connectable=1;container=0;" parent="120" vertex="1">
                    <mxGeometry x="120" y="140" width="40" height="40" as="geometry"/>
                </mxCell>
                <mxCell id="4" value="(0,0)" style="rounded=0;whiteSpace=wrap;html=1;fillColor=#d5e8d4;strokeColor=#82b366;container=0;" parent="120" vertex="1">
                    <mxGeometry width="40" height="40" as="geometry"/>
                </mxCell>
                <mxCell id="5" value="(0,1)" style="rounded=0;whiteSpace=wrap;html=1;fillColor=#d5e8d4;strokeColor=#82b366;container=0;" parent="120" vertex="1">
                    <mxGeometry x="40" width="40" height="40" as="geometry"/>
                </mxCell>
                <mxCell id="6" value="(0,2)" style="rounded=0;whiteSpace=wrap;html=1;fillColor=#d5e8d4;strokeColor=#82b366;container=0;" parent="120" vertex="1">
                    <mxGeometry x="80" width="40" height="40" as="geometry"/>
                </mxCell>
                <mxCell id="7" value="(0,3)" style="rounded=0;whiteSpace=wrap;html=1;fillColor=#d5e8d4;strokeColor=#82b366;container=0;" parent="120" vertex="1">
                    <mxGeometry x="120" width="40" height="40" as="geometry"/>
                </mxCell>
                <mxCell id="8" value="(1,0)" style="rounded=0;whiteSpace=wrap;html=1;fillColor=#fff2cc;strokeColor=#d6b656;container=0;" parent="120" vertex="1">
                    <mxGeometry y="40" width="40" height="40" as="geometry"/>
                </mxCell>
                <mxCell id="9" value="(1,1)" style="rounded=0;whiteSpace=wrap;html=1;fillColor=#fff2cc;strokeColor=#d6b656;container=0;" parent="120" vertex="1">
                    <mxGeometry x="40" y="40" width="40" height="40" as="geometry"/>
                </mxCell>
                <mxCell id="10" value="(1,2)" style="rounded=0;whiteSpace=wrap;html=1;fillColor=#fff2cc;strokeColor=#d6b656;container=0;" parent="120" vertex="1">
                    <mxGeometry x="80" y="40" width="40" height="40" as="geometry"/>
                </mxCell>
                <mxCell id="11" value="(1,3)" style="rounded=0;whiteSpace=wrap;html=1;fillColor=#fff2cc;strokeColor=#d6b656;container=0;" parent="120" vertex="1">
                    <mxGeometry x="120" y="40" width="40" height="40" as="geometry"/>
                </mxCell>
                <mxCell id="12" value="(2,0)" style="rounded=0;whiteSpace=wrap;html=1;fillColor=#dae8fc;strokeColor=#6c8ebf;container=0;" parent="120" vertex="1">
                    <mxGeometry y="80" width="40" height="40" as="geometry"/>
                </mxCell>
                <mxCell id="13" value="(2,1)" style="rounded=0;whiteSpace=wrap;html=1;fillColor=#dae8fc;strokeColor=#6c8ebf;container=0;" parent="120" vertex="1">
                    <mxGeometry x="40" y="80" width="40" height="40" as="geometry"/>
                </mxCell>
                <mxCell id="14" value="(2,2)" style="rounded=0;whiteSpace=wrap;html=1;fillColor=#dae8fc;strokeColor=#6c8ebf;container=0;" parent="120" vertex="1">
                    <mxGeometry x="80" y="80" width="40" height="40" as="geometry"/>
                </mxCell>
                <mxCell id="15" value="(2,3)" style="rounded=0;whiteSpace=wrap;html=1;fillColor=#dae8fc;strokeColor=#6c8ebf;container=0;" parent="120" vertex="1">
                    <mxGeometry x="120" y="80" width="40" height="40" as="geometry"/>
                </mxCell>
                <mxCell id="32" value="" style="rounded=0;whiteSpace=wrap;html=1;fillColor=none;dashed=1;dashPattern=1 4;strokeWidth=2;strokeColor=#FF0000;container=0;" parent="120" vertex="1">
                    <mxGeometry width="160" height="130" as="geometry"/>
                </mxCell>
                <mxCell id="92" value="" style="rounded=0;whiteSpace=wrap;html=1;fillColor=none;dashed=1;dashPattern=1 4;strokeWidth=2;strokeColor=#FF0000;container=0;" parent="120" vertex="1">
                    <mxGeometry y="130" width="160" height="50" as="geometry"/>
                </mxCell>
                <mxCell id="121" value="" style="rounded=0;whiteSpace=wrap;html=1;fillColor=none;dashed=1;dashPattern=1 4;strokeWidth=2;strokeColor=#9933FF;container=0;" parent="120" vertex="1">
                    <mxGeometry x="10" y="10" width="140" height="20" as="geometry"/>
                </mxCell>
                <mxCell id="124" value="" style="rounded=0;whiteSpace=wrap;html=1;fillColor=none;dashed=1;dashPattern=1 4;strokeWidth=2;strokeColor=#9933FF;container=0;" parent="120" vertex="1">
                    <mxGeometry x="10" y="150" width="140" height="20" as="geometry"/>
                </mxCell>
                <mxCell id="123" value="" style="rounded=0;whiteSpace=wrap;html=1;fillColor=none;dashed=1;dashPattern=1 4;strokeWidth=2;strokeColor=#9933FF;container=0;" parent="120" vertex="1">
                    <mxGeometry x="10" y="90" width="140" height="20" as="geometry"/>
                </mxCell>
                <mxCell id="122" value="" style="rounded=0;whiteSpace=wrap;html=1;fillColor=none;dashed=1;dashPattern=1 4;strokeWidth=2;strokeColor=#9933FF;container=0;" parent="120" vertex="1">
                    <mxGeometry x="10" y="50" width="140" height="20" as="geometry"/>
                </mxCell>
                <mxCell id="84" value="" style="group" parent="127" vertex="1" connectable="0">
                    <mxGeometry y="200" width="180" height="160" as="geometry"/>
                </mxCell>
                <mxCell id="68" value="..." style="rounded=0;whiteSpace=wrap;html=1;" parent="84" vertex="1">
                    <mxGeometry x="120" width="40" height="160" as="geometry"/>
                </mxCell>
                <mxCell id="63" value="" style="group" parent="84" vertex="1" connectable="0">
                    <mxGeometry width="130" height="160" as="geometry"/>
                </mxCell>
                <mxCell id="16" value="(0,0)" style="rounded=0;whiteSpace=wrap;html=1;fillColor=#d5e8d4;strokeColor=#82b366;" parent="63" vertex="1">
                    <mxGeometry width="40" height="40" as="geometry"/>
                </mxCell>
                <mxCell id="17" value="(1,0)" style="rounded=0;whiteSpace=wrap;html=1;fillColor=#fff2cc;strokeColor=#d6b656;" parent="63" vertex="1">
                    <mxGeometry x="40" width="40" height="40" as="geometry"/>
                </mxCell>
                <mxCell id="18" value="(2,0)" style="rounded=0;whiteSpace=wrap;html=1;fillColor=#dae8fc;strokeColor=#6c8ebf;" parent="63" vertex="1">
                    <mxGeometry x="80" width="40" height="40" as="geometry"/>
                </mxCell>
                <mxCell id="19" value="(0,1)" style="rounded=0;whiteSpace=wrap;html=1;fillColor=#d5e8d4;strokeColor=#82b366;" parent="63" vertex="1">
                    <mxGeometry y="40" width="40" height="40" as="geometry"/>
                </mxCell>
                <mxCell id="20" value="(1,1)" style="rounded=0;whiteSpace=wrap;html=1;fillColor=#fff2cc;strokeColor=#d6b656;" parent="63" vertex="1">
                    <mxGeometry x="40" y="40" width="40" height="40" as="geometry"/>
                </mxCell>
                <mxCell id="21" value="(2,1)" style="rounded=0;whiteSpace=wrap;html=1;fillColor=#dae8fc;strokeColor=#6c8ebf;" parent="63" vertex="1">
                    <mxGeometry x="80" y="40" width="40" height="40" as="geometry"/>
                </mxCell>
                <mxCell id="22" value="(0,2)" style="rounded=0;whiteSpace=wrap;html=1;fillColor=#d5e8d4;strokeColor=#82b366;" parent="63" vertex="1">
                    <mxGeometry y="80" width="40" height="40" as="geometry"/>
                </mxCell>
                <mxCell id="23" value="(1,2)" style="rounded=0;whiteSpace=wrap;html=1;fillColor=#fff2cc;strokeColor=#d6b656;" parent="63" vertex="1">
                    <mxGeometry x="40" y="80" width="40" height="40" as="geometry"/>
                </mxCell>
                <mxCell id="24" value="(2,2)" style="rounded=0;whiteSpace=wrap;html=1;fillColor=#dae8fc;strokeColor=#6c8ebf;" parent="63" vertex="1">
                    <mxGeometry x="80" y="80" width="40" height="40" as="geometry"/>
                </mxCell>
                <mxCell id="25" value="(0,3)" style="rounded=0;whiteSpace=wrap;html=1;fillColor=#d5e8d4;strokeColor=#82b366;" parent="63" vertex="1">
                    <mxGeometry y="120" width="40" height="40" as="geometry"/>
                </mxCell>
                <mxCell id="26" value="(1,3)" style="rounded=0;whiteSpace=wrap;html=1;fillColor=#fff2cc;strokeColor=#d6b656;" parent="63" vertex="1">
                    <mxGeometry x="40" y="120" width="40" height="40" as="geometry"/>
                </mxCell>
                <mxCell id="27" value="(2,3)" style="rounded=0;whiteSpace=wrap;html=1;fillColor=#dae8fc;strokeColor=#6c8ebf;" parent="63" vertex="1">
                    <mxGeometry x="80" y="120" width="40" height="40" as="geometry"/>
                </mxCell>
                <mxCell id="95" value="" style="rounded=0;whiteSpace=wrap;html=1;fillColor=none;dashed=1;dashPattern=1 4;strokeWidth=2;strokeColor=#9933FF;container=0;" parent="63" vertex="1">
                    <mxGeometry width="130" height="40" as="geometry"/>
                </mxCell>
                <mxCell id="99" value="" style="rounded=0;whiteSpace=wrap;html=1;fillColor=none;dashed=1;dashPattern=1 4;strokeWidth=2;strokeColor=#9933FF;container=0;" parent="63" vertex="1">
                    <mxGeometry y="120" width="130" height="40" as="geometry"/>
                </mxCell>
                <mxCell id="97" value="" style="rounded=0;whiteSpace=wrap;html=1;fillColor=none;dashed=1;dashPattern=1 4;strokeWidth=2;strokeColor=#9933FF;container=0;" parent="84" vertex="1">
                    <mxGeometry y="40" width="130" height="40" as="geometry"/>
                </mxCell>
                <mxCell id="98" value="" style="rounded=0;whiteSpace=wrap;html=1;fillColor=none;dashed=1;dashPattern=1 4;strokeWidth=2;strokeColor=#9933FF;container=0;" parent="84" vertex="1">
                    <mxGeometry y="80" width="130" height="40" as="geometry"/>
                </mxCell>
                <mxCell id="103" value="" style="rounded=0;whiteSpace=wrap;html=1;fillColor=none;dashed=1;dashPattern=1 4;strokeWidth=2;strokeColor=#FF0000;container=0;" parent="84" vertex="1">
                    <mxGeometry width="140" height="160" as="geometry"/>
                </mxCell>
                <mxCell id="74" value="" style="group" parent="127" vertex="1" connectable="0">
                    <mxGeometry x="160" y="200" width="40" height="160" as="geometry"/>
                </mxCell>
                <mxCell id="69" value="(15,0)" style="rounded=0;whiteSpace=wrap;html=1;fillColor=#f8cecc;strokeColor=#b85450;" parent="74" vertex="1">
                    <mxGeometry width="40" height="40" as="geometry"/>
                </mxCell>
                <mxCell id="70" value="(15,1)" style="rounded=0;whiteSpace=wrap;html=1;fillColor=#f8cecc;strokeColor=#b85450;" parent="74" vertex="1">
                    <mxGeometry y="40" width="40" height="40" as="geometry"/>
                </mxCell>
                <mxCell id="71" value="(15,2)" style="rounded=0;whiteSpace=wrap;html=1;fillColor=#f8cecc;strokeColor=#b85450;" parent="74" vertex="1">
                    <mxGeometry y="80" width="40" height="40" as="geometry"/>
                </mxCell>
                <mxCell id="72" value="(15,3)" style="rounded=0;whiteSpace=wrap;html=1;fillColor=#f8cecc;strokeColor=#b85450;" parent="74" vertex="1">
                    <mxGeometry y="120" width="40" height="40" as="geometry"/>
                </mxCell>
                <mxCell id="96" value="" style="rounded=0;whiteSpace=wrap;html=1;fillColor=none;dashed=1;dashPattern=1 4;strokeWidth=2;strokeColor=#9933FF;container=0;" parent="74" vertex="1">
                    <mxGeometry x="-10" width="50" height="40" as="geometry"/>
                </mxCell>
                <mxCell id="102" value="" style="rounded=0;whiteSpace=wrap;html=1;fillColor=none;dashed=1;dashPattern=1 4;strokeWidth=2;strokeColor=#9933FF;container=0;" parent="74" vertex="1">
                    <mxGeometry x="-10" y="120" width="50" height="40" as="geometry"/>
                </mxCell>
                <mxCell id="101" value="" style="rounded=0;whiteSpace=wrap;html=1;fillColor=none;dashed=1;dashPattern=1 4;strokeWidth=2;strokeColor=#9933FF;container=0;" parent="74" vertex="1">
                    <mxGeometry x="-10" y="80" width="50" height="40" as="geometry"/>
                </mxCell>
                <mxCell id="100" value="" style="rounded=0;whiteSpace=wrap;html=1;fillColor=none;dashed=1;dashPattern=1 4;strokeWidth=2;strokeColor=#9933FF;container=0;" parent="74" vertex="1">
                    <mxGeometry x="-10" y="40" width="50" height="40" as="geometry"/>
                </mxCell>
                <mxCell id="104" value="" style="rounded=0;whiteSpace=wrap;html=1;fillColor=none;dashed=1;dashPattern=1 4;strokeWidth=2;strokeColor=#FF0000;container=0;" parent="74" vertex="1">
                    <mxGeometry x="-20" width="60" height="160" as="geometry"/>
                </mxCell>
                <mxCell id="28" value="" style="endArrow=classic;html=1;rounded=0;entryX=0;entryY=0.5;entryDx=0;entryDy=0;exitX=1;exitY=0.5;exitDx=0;exitDy=0;strokeColor=#82b366;strokeWidth=2;" parent="127" source="4" target="16" edge="1">
                    <mxGeometry width="50" height="50" relative="1" as="geometry">
                        <mxPoint x="-180" y="-110" as="sourcePoint"/>
                        <mxPoint x="-130" y="-160" as="targetPoint"/>
                    </mxGeometry>
                </mxCell>
                <mxCell id="29" value="" style="endArrow=classic;html=1;rounded=0;entryX=0;entryY=0.5;entryDx=0;entryDy=0;exitX=1;exitY=0.5;exitDx=0;exitDy=0;strokeColor=#82b366;strokeWidth=2;" parent="127" source="5" target="19" edge="1">
                    <mxGeometry width="50" height="50" relative="1" as="geometry">
                        <mxPoint x="-130" y="80" as="sourcePoint"/>
                        <mxPoint x="-80" y="30" as="targetPoint"/>
                    </mxGeometry>
                </mxCell>
                <mxCell id="30" value="" style="endArrow=classic;html=1;rounded=0;entryX=0;entryY=0.5;entryDx=0;entryDy=0;exitX=1;exitY=0.5;exitDx=0;exitDy=0;strokeColor=#82b366;strokeWidth=2;" parent="127" source="6" target="22" edge="1">
                    <mxGeometry width="50" height="50" relative="1" as="geometry">
                        <mxPoint x="-130" y="80" as="sourcePoint"/>
                        <mxPoint x="-80" y="30" as="targetPoint"/>
                    </mxGeometry>
                </mxCell>
                <mxCell id="31" value="" style="endArrow=classic;html=1;rounded=0;entryX=0;entryY=0.5;entryDx=0;entryDy=0;strokeColor=#82b366;strokeWidth=2;" parent="127" target="25" edge="1">
                    <mxGeometry width="50" height="50" relative="1" as="geometry">
                        <mxPoint x="170" y="20" as="sourcePoint"/>
                        <mxPoint x="-80" y="30" as="targetPoint"/>
                    </mxGeometry>
                </mxCell>
                <mxCell id="128" value="" style="group" vertex="1" connectable="0" parent="1">
                    <mxGeometry x="40" y="300" width="400" height="110" as="geometry"/>
                </mxCell>
                <mxCell id="51" value="&lt;div&gt;&lt;font style=&quot;font-size: 13px;&quot;&gt;sequential access in a transaction&lt;/font&gt;&lt;/div&gt;&lt;font style=&quot;color: rgb(153, 51, 255); font-size: 13px;&quot;&gt;=coalesced read in a Warp&lt;/font&gt;" style="text;html=1;strokeColor=none;fillColor=none;align=center;verticalAlign=middle;whiteSpace=wrap;rounded=0;fontColor=#FF0000;" parent="128" vertex="1">
                    <mxGeometry x="40" y="80" width="200" height="30" as="geometry"/>
                </mxCell>
                <mxCell id="93" value="" style="group" parent="128" vertex="1" connectable="0">
                    <mxGeometry width="400" height="108" as="geometry"/>
                </mxCell>
                <mxCell id="52" value="" style="shape=curlyBracket;whiteSpace=wrap;html=1;rounded=1;labelPosition=left;verticalLabelPosition=middle;align=right;verticalAlign=middle;strokeWidth=2;strokeColor=#9933FF;rotation=-90;" parent="93" vertex="1">
                    <mxGeometry x="110" y="-10" width="20" height="160" as="geometry"/>
                </mxCell>
                <mxCell id="58" value="" style="group" parent="93" vertex="1" connectable="0">
                    <mxGeometry x="40" width="360" height="65" as="geometry"/>
                </mxCell>
                <mxCell id="37" value="Input Matrix on MEM" style="rounded=0;whiteSpace=wrap;html=1;align=center;spacingLeft=5;fillColor=#f5f5f5;fontColor=#333333;strokeColor=#666666;" parent="58" vertex="1">
                    <mxGeometry width="360" height="30" as="geometry"/>
                </mxCell>
                <mxCell id="38" value="(0,0)" style="rounded=0;whiteSpace=wrap;html=1;fillColor=#d5e8d4;strokeColor=#82b366;" parent="58" vertex="1">
                    <mxGeometry y="30" width="40" height="30" as="geometry"/>
                </mxCell>
                <mxCell id="39" value="(0,1)" style="rounded=0;whiteSpace=wrap;html=1;fillColor=#d5e8d4;strokeColor=#82b366;" parent="58" vertex="1">
                    <mxGeometry x="40" y="30" width="40" height="30" as="geometry"/>
                </mxCell>
                <mxCell id="40" value="(0,2)" style="rounded=0;whiteSpace=wrap;html=1;fillColor=#d5e8d4;strokeColor=#82b366;" parent="58" vertex="1">
                    <mxGeometry x="80" y="30" width="40" height="30" as="geometry"/>
                </mxCell>
                <mxCell id="41" value="(0,3)" style="rounded=0;whiteSpace=wrap;html=1;fillColor=#d5e8d4;strokeColor=#82b366;" parent="58" vertex="1">
                    <mxGeometry x="120" y="30" width="40" height="30" as="geometry"/>
                </mxCell>
                <mxCell id="42" value="(1,0)" style="rounded=0;whiteSpace=wrap;html=1;fillColor=#fff2cc;strokeColor=#d6b656;" parent="58" vertex="1">
                    <mxGeometry x="160" y="30" width="40" height="30" as="geometry"/>
                </mxCell>
                <mxCell id="43" value="..." style="text;html=1;strokeColor=none;fillColor=none;align=center;verticalAlign=middle;whiteSpace=wrap;rounded=0;" parent="58" vertex="1">
                    <mxGeometry x="210" y="30" width="30" height="30" as="geometry"/>
                </mxCell>
                <mxCell id="55" value="(15,3)" style="text;html=1;align=center;verticalAlign=middle;whiteSpace=wrap;rounded=0;fillColor=#f8cecc;strokeColor=#b85450;" parent="58" vertex="1">
                    <mxGeometry x="320" y="30" width="40" height="30" as="geometry"/>
                </mxCell>
                <mxCell id="85" value="" style="rounded=0;whiteSpace=wrap;html=1;fillColor=none;dashed=1;dashPattern=1 4;strokeWidth=2;strokeColor=#9933FF;container=0;" parent="58" vertex="1">
                    <mxGeometry y="30" width="160" height="30" as="geometry"/>
                </mxCell>
                <mxCell id="90" value="" style="rounded=0;whiteSpace=wrap;html=1;fillColor=none;dashed=1;dashPattern=1 4;strokeWidth=2;strokeColor=#9933FF;container=0;" parent="58" vertex="1">
                    <mxGeometry x="160" y="30" width="50" height="30" as="geometry"/>
                </mxCell>
                <mxCell id="91" value="" style="rounded=0;whiteSpace=wrap;html=1;fillColor=none;dashed=1;dashPattern=1 4;strokeWidth=2;strokeColor=#9933FF;container=0;" parent="58" vertex="1">
                    <mxGeometry x="240" y="30" width="120" height="30" as="geometry"/>
                </mxCell>
                <mxCell id="106" value="" style="rounded=0;whiteSpace=wrap;html=1;fillColor=none;dashed=1;dashPattern=1 4;strokeWidth=2;strokeColor=#FF0000;container=0;" parent="58" vertex="1">
                    <mxGeometry x="220" y="25" width="140" height="40" as="geometry"/>
                </mxCell>
                <mxCell id="108" value="&lt;font style=&quot;color: rgb(255, 0, 128);&quot;&gt;2&lt;/font&gt;" style="text;html=1;align=center;verticalAlign=middle;resizable=0;points=[];autosize=1;strokeColor=none;fillColor=none;" parent="58" vertex="1">
                    <mxGeometry x="60" y="17.5" width="30" height="30" as="geometry"/>
                </mxCell>
                <mxCell id="126" value="&lt;span style=&quot;color: rgb(255, 0, 128);&quot;&gt;63&lt;/span&gt;" style="text;html=1;align=center;verticalAlign=middle;resizable=0;points=[];autosize=1;strokeColor=none;fillColor=none;" parent="58" vertex="1">
                    <mxGeometry x="305" y="17.5" width="40" height="30" as="geometry"/>
                </mxCell>
                <mxCell id="65" value="(i, j)" style="text;html=1;align=center;verticalAlign=middle;resizable=0;points=[];autosize=1;strokeColor=none;fillColor=none;" parent="93" vertex="1">
                    <mxGeometry y="30" width="40" height="30" as="geometry"/>
                </mxCell>
                <mxCell id="117" value="&lt;div style=&quot;color: rgb(59, 59, 59); background-color: rgb(255, 255, 255); font-family: Menlo, Monaco, &amp;quot;Courier New&amp;quot;, monospace; line-height: 18px; white-space-collapse: preserve;&quot;&gt;&lt;span style=&quot;color: #3b3b3b;&quot;&gt;from_idx = i*N + j&lt;/span&gt;&lt;/div&gt;" style="text;html=1;align=center;verticalAlign=middle;resizable=0;points=[];autosize=1;strokeColor=none;fillColor=none;" parent="93" vertex="1">
                    <mxGeometry x="250" y="78" width="150" height="30" as="geometry"/>
                </mxCell>
                <mxCell id="105" value="" style="rounded=0;whiteSpace=wrap;html=1;fillColor=none;dashed=1;dashPattern=1 4;strokeWidth=2;strokeColor=#FF0000;container=0;" parent="128" vertex="1">
                    <mxGeometry x="40" y="25" width="220" height="40" as="geometry"/>
                </mxCell>
                <mxCell id="107" value="&lt;span style=&quot;color: rgb(255, 0, 128);&quot;&gt;1&lt;/span&gt;" style="text;html=1;align=center;verticalAlign=middle;resizable=0;points=[];autosize=1;strokeColor=none;fillColor=none;" parent="128" vertex="1">
                    <mxGeometry x="60" y="20" width="30" height="30" as="geometry"/>
                </mxCell>
                <mxCell id="109" value="&lt;font style=&quot;color: rgb(255, 0, 128);&quot;&gt;3&lt;/font&gt;" style="text;html=1;align=center;verticalAlign=middle;resizable=0;points=[];autosize=1;strokeColor=none;fillColor=none;" parent="128" vertex="1">
                    <mxGeometry x="140" y="20" width="30" height="30" as="geometry"/>
                </mxCell>
            </root>
        </mxGraphModel>
    </diagram>
</mxfile>